<svg xmlns="http://www.w3.org/2000/svg" version="1.1" xmlns:xlink="http://www.w3.org/1999/xlink" xmlns:svgjs="http://svgjs.dev/svgjs" width="1500" height="1264" viewBox="0 0 1500 1264"><g transform="matrix(1,0,0,1,0.6627841594864776,0.5117408906882019)"><svg viewBox="0 0 293 247" data-background-color="#ffffff" preserveAspectRatio="xMidYMid meet" height="1264" width="1500" xmlns="http://www.w3.org/2000/svg" xmlns:xlink="http://www.w3.org/1999/xlink"><g id="tight-bounds" transform="matrix(1,0,0,1,-0.12946383915303272,-0.09999999999999432)"><svg viewBox="0 0 293.25892767830607 247.2" height="247.2" width="293.25892767830607"><g><svg viewBox="0 0 395.52 333.40005971532696" height="247.2" width="293.25892767830607"><g transform="matrix(1,0,0,1,0,248.0660826483384)"><svg viewBox="0 0 395.52 85.33397706698854" height="85.33397706698854" width="395.52"><g id="textblocktransform"><svg viewBox="0 0 395.52 85.33397706698854" height="85.33397706698854" width="395.52" id="textblock"><g><svg viewBox="0 0 395.52 85.33397706698854" height="85.33397706698854" width="395.52"><g transform="matrix(1,0,0,1,0,0)"><svg width="395.52" viewBox="3.85 -35.35 165.69 35.75" height="85.33397706698854" data-palette-color="#007cfb"><path d="M13.1-12.4L13.1-12.4 7.9-12.4 7.9 0 3.85 0 3.85-33.7 12.7-33.7Q18.55-33.7 21.93-30.68 25.3-27.65 25.3-22.85L25.3-22.85Q25.3-18.35 21.95-15.38 18.6-12.4 13.1-12.4ZM12.75-30.25L12.75-30.25 7.9-30.25 7.9-15.85 13.1-15.85Q16.9-15.85 19.05-17.82 21.2-19.8 21.2-22.85L21.2-22.85Q21.2-26.25 19-28.25 16.8-30.25 12.75-30.25ZM50.6-8.95L50.6-8.95Q50.6-4.5 47.55-2.08 44.5 0.35 39.7 0.35L39.7 0.35Q34.4 0.35 30.7-1.8L30.7-1.8 30.7-6.15Q34.35-3.4 39.6-3.4L39.6-3.4Q42.75-3.4 44.55-4.8 46.35-6.2 46.35-8.85L46.35-8.85Q46.35-9.95 45.92-10.83 45.5-11.7 44.52-12.43 43.55-13.15 42.67-13.63 41.8-14.1 40.3-14.8L40.3-14.8Q40-14.95 39.4-15.2L39.4-15.2Q37.25-16.15 36.12-16.75 35-17.35 33.47-18.53 31.95-19.7 31.25-21.25 30.55-22.8 30.55-24.85L30.55-24.85Q30.55-29.15 33.62-31.58 36.7-34 41.35-34L41.35-34Q45.7-34 48.75-32.45L48.75-32.45 48.75-28.2Q45.7-30.2 41.45-30.2L41.45-30.2Q38.4-30.2 36.6-28.78 34.8-27.35 34.8-25.05L34.8-25.05Q34.8-23.85 35.27-22.9 35.75-21.95 36.95-21.13 38.15-20.3 39-19.88 39.85-19.45 41.65-18.65L41.65-18.65Q43.35-17.9 44.25-17.48 45.15-17.05 46.57-16.13 48-15.2 48.72-14.33 49.45-13.45 50.02-12.03 50.6-10.6 50.6-8.95ZM81.45-5.95L81.45-1.7Q78.35 0.4 72.95 0.4L72.95 0.4Q65.35 0.4 60.6-4.28 55.85-8.95 55.85-17L55.85-17Q55.85-24.6 60.67-29.38 65.5-34.15 72.8-34.15L72.8-34.15Q78.05-34.15 81.35-32.35L81.35-32.35 81.35-28.2Q79.15-29.35 77.4-29.85 75.65-30.35 72.8-30.35L72.8-30.35Q67.35-30.35 63.72-26.65 60.1-22.95 60.1-17L60.1-17Q60.1-10.8 63.7-7.1 67.3-3.4 73.25-3.4L73.25-3.4Q78.05-3.4 81.45-5.95L81.45-5.95ZM91.34-35.35L91.34 0 87.39 0 87.39-35.35 91.34-35.35ZM117.34-5L117.34-1.3Q114.39 0.25 110.14 0.25L110.14 0.25Q104.39 0.25 100.87-3.28 97.34-6.8 97.34-12.6L97.34-12.6Q97.34-18.65 100.49-22.15 103.64-25.65 108.59-25.65L108.59-25.65Q113.34-25.65 116.14-22.6 118.94-19.55 118.94-13.95L118.94-13.95Q118.94-12.35 118.69-11L118.69-11 101.39-11Q101.84-7.25 104.24-5.25 106.64-3.25 110.54-3.25L110.54-3.25Q114.79-3.25 117.34-5L117.34-5ZM108.59-22.2L108.59-22.2Q105.74-22.2 103.74-20.15 101.74-18.1 101.39-14.3L101.39-14.3 114.99-14.3 114.99-15.3Q114.99-18.45 113.29-20.33 111.59-22.2 108.59-22.2ZM132.69-3.05L132.69-3.05Q135.39-3.05 136.99-4.58 138.59-6.1 138.59-8.45L138.59-8.45 138.59-11.7 134.19-11.7Q130.99-11.7 129.39-10.45 127.79-9.2 127.79-7.3 127.79-5.4 129.04-4.23 130.29-3.05 132.69-3.05ZM138.64 0L138.64-3Q136.69 0.25 131.54 0.25L131.54 0.25Q127.99 0.25 125.81-1.85 123.64-3.95 123.64-7.15L123.64-7.15Q123.64-10.8 126.41-12.83 129.19-14.85 133.99-14.85L133.99-14.85 138.59-14.85 138.59-16.15Q138.59-19.15 137.24-20.68 135.89-22.2 132.69-22.2L132.69-22.2Q128.64-22.2 125.49-20.05L125.49-20.05 125.49-24Q128.34-25.75 132.99-25.75L132.99-25.75Q142.54-25.75 142.54-16.05L142.54-16.05 142.54 0 138.64 0ZM169.54-17.45L169.54 0 165.59 0 165.59-16.4Q165.59-19.2 164.16-20.68 162.74-22.15 160.44-22.15L160.44-22.15Q157.59-22.15 155.51-19.95 153.44-17.75 153.44-13.85L153.44-13.85 153.44 0 149.54 0 149.54-25.35 153.44-25.35 153.44-20.95Q155.69-25.7 161.44-25.7L161.44-25.7Q165.14-25.7 167.34-23.45 169.54-21.2 169.54-17.45L169.54-17.45Z" opacity="1" transform="matrix(1,0,0,1,0,0)" fill="#007cfb" class="wordmark-text-0" data-fill-palette-color="primary" id="text-0"></path></svg></g></svg></g></svg></g></svg></g><g transform="matrix(1,0,0,1,93.87226264589718,0)"><svg viewBox="0 0 207.77547470820562 207.77547470820562" height="207.77547470820562" width="207.77547470820562"><g><svg></svg></g><g id="icon-0"><svg viewBox="0 0 207.77547470820562 207.77547470820562" height="207.77547470820562" width="207.77547470820562"><g><path d="M0 103.888c0-57.376 46.512-103.888 103.888-103.888 57.376 0 103.888 46.512 103.887 103.888 0 57.376-46.512 103.888-103.887 103.887-57.376 0-103.888-46.512-103.888-103.887zM103.888 200.08c53.126 0 96.192-43.067 96.192-96.192 0-53.126-43.067-96.192-96.192-96.192-53.126 0-96.192 43.067-96.192 96.192 0 53.126 43.067 96.192 96.192 96.192z" data-fill-palette-color="accent" fill="#007cfb" stroke="transparent"></path><ellipse rx="102.84885998056178" ry="102.84885998056178" cx="103.88773735410281" cy="103.88773735410281" fill="#007cfb" stroke="transparent" stroke-width="0" fill-opacity="1" data-fill-palette-color="accent"></ellipse></g><g transform="matrix(1,0,0,1,43.76809495949939,49.940106635008355)"><svg viewBox="0 0 120.23928478920683 107.89526143818891" height="107.89526143818891" width="120.23928478920683"><g><svg xmlns="http://www.w3.org/2000/svg" xmlns:xlink="http://www.w3.org/1999/xlink" version="1.1" x="0" y="0" viewBox="5 8.637000074927268 89.702 80.49299992507271" enable-background="new 0 0 100 100" xml:space="preserve" height="107.89526143818891" width="120.23928478920683" class="icon-cg-0" data-fill-palette-color="quaternary" id="cg-0"><g fill="#ffffff" data-fill-palette-color="quaternary"><path fill="#ffffff" d="M37.517 65.16H11.729c1.604 0 2.904-1.301 2.904-2.904V53.75c0-1.604-1.3-2.904-2.904-2.904H5V65.16v23.342h14.12c0-6.892 2-9.781 9.198-9.781C39.594 78.721 37.517 65.16 37.517 65.16zM15.747 87.461c-0.222 0-0.403-0.168-0.403-0.373 0-3.265-1.582-6.022-3.454-6.022-1.874 0-3.454 2.758-3.454 6.022 0 0.205-0.182 0.373-0.405 0.373-0.222 0-0.403-0.168-0.403-0.373 0-3.797 1.873-6.77 4.262-6.77s4.261 2.973 4.261 6.77C16.151 87.293 15.971 87.461 15.747 87.461z" data-fill-palette-color="quaternary"></path><circle fill="#ffffff" cx="8.772" cy="49.05" r="1.2" data-fill-palette-color="quaternary"></circle><path fill="#ffffff" d="M19.021 64.721h17.482c0.666 0 1.207-0.541 1.207-1.206 0-0.666-0.541-1.206-1.207-1.206H19.021c-0.666 0-1.206 0.54-1.206 1.206C17.815 64.18 18.355 64.721 19.021 64.721z" data-fill-palette-color="quaternary"></path><path fill="#ffffff" d="M36.503 60.567H19.021c-0.666 0-1.206 0.54-1.206 1.206H37.71C37.71 61.107 37.169 60.567 36.503 60.567z" data-fill-palette-color="quaternary"></path><circle fill="#ffffff" cx="64.218" cy="15.001" r="6.4" data-fill-palette-color="quaternary"></circle><path fill="#ffffff" d="M72.518 48.068c0.21-0.771 0.269-1.599 0.139-2.439l-2.617-17.077c-0.04-0.255-0.097-0.505-0.167-0.747 0.079-0.725-0.111-1.464-0.553-2.065-0.945-2.004-3.028-3.344-5.378-3.229-2.149 0.106-3.956 1.401-4.819 3.218-0.109 0.148-0.208 0.308-0.291 0.481l-4.471 9.322 2.461-13.37-1.575-0.29-3.528 19.169-1.559 3.25c-0.511 1.066-0.321 2.284 0.382 3.142L45.89 72.692c-1.743 0.05-3.142 1.476-3.142 3.229 0 0.201 0.021 0.397 0.057 0.589-1.51 0.264-3.107 0.945-3.226 2.649-0.229 3.283 1.883 5.494-0.356 7.023-2.388 1.633-8.107 2.318-8.107 2.318h16.927c0 0 4.574-6.059 3.658-8.836-0.386-1.174-1.548-1.94-2.76-2.436 0.177-0.4 0.278-0.843 0.278-1.309 0-1.257-0.718-2.343-1.765-2.879l4.539-24.654c0.271 0.079 0.546 0.122 0.818 0.122 0.938 0 1.844-0.451 2.403-1.241 0.227-0.163 0.436-0.357 0.615-0.588l4.233-5.476 0.951 6.206c0.034 0.225 0.082 0.442 0.14 0.656-0.064 0.175-0.116 0.356-0.149 0.545l-6.338 36.878c-0.291 1.694 0.847 3.305 2.54 3.596 0.179 0.03 0.356 0.045 0.531 0.045 1.487 0 2.804-1.07 3.064-2.586l5.792-33.696 0.995 33.263c0.051 1.686 1.434 3.02 3.109 3.02 0.031 0 0.063-0.001 0.095-0.001 1.718-0.052 3.07-1.486 3.019-3.205l-1.104-36.878C72.697 48.704 72.63 48.375 72.518 48.068z" data-fill-palette-color="quaternary"></path><polygon fill="#ffffff" points="94.702,22.712 93.103,22.63 90.751,68.832 77.517,68.832 78.825,88.502 92.904,88.502    94.213,68.832 92.354,68.832  " data-fill-palette-color="quaternary"></polygon></g></svg></g></svg></g></svg></g></svg></g><g></g></svg></g><defs></defs></svg><rect width="293.25892767830607" height="247.2" fill="none" stroke="none" visibility="hidden"></rect></g></svg></g></svg>